<?xml version="1.0" encoding="iso-8859-1"?>
<!-- Uploaded to: SVG Repo, www.svgrepo.com, Generator: SVG Repo Mixer Tools -->
<svg fill="#000000" height="800px" width="800px" version="1.1" id="Layer_1" xmlns="http://www.w3.org/2000/svg" xmlns:xlink="http://www.w3.org/1999/xlink" 
	 viewBox="0 0 493.269 493.269" xml:space="preserve">
<g transform="translate(0 -1)">
	<g>
		<g>
			<path d="M490.666,324.228c6.933-39.019-0.469-66.965-16.448-104.448c-3.691-8.661-12.544-14.037-22.037-12.821
				c-3.669,0.405-7.509,0.341-14.016-4.907c-7.467-6.016-11.627-14.357-11.179-22.272c0.704-11.605,8.256-22.571,13.781-29.824
				c28.501-6.464,49.899-31.893,49.899-62.315c0-35.307-28.715-64-64-64c-11.797,0-21.333,9.536-21.333,21.333
				c0,11.776,9.536,21.333,21.333,21.333c11.776,0,21.333,9.557,21.333,21.333c0,11.755-9.557,21.333-21.333,21.333
				c-2.368,0-4.565,0.619-6.699,1.344l-99.669-1.344c-1.301-0.107-2.539,0.085-3.797,0.277
				c-88.512,14.699-186.688,76.331-212.139,181.483c-26.816,9.301-50.603,20.053-73.579,52.693l-0.128,0.213h460.011V324.228z
				 M384.746,287.321c-3.179,8.235-11.093,13.653-19.904,13.653H224.511c-7.936,0-15.211-4.395-18.88-11.435
				c-3.691-7.019-3.179-15.488,1.323-22.037c24.043-34.816,66.539-61.781,113.707-72.171c10.987-2.453,21.995,4.16,25.109,14.997
				c5.803,20.395,17.365,38.912,33.429,53.525C385.727,269.785,387.925,279.108,384.746,287.321z"/>
			<path d="M0.641,445.132c-1.6,6.379-0.171,13.12,3.883,18.283c4.032,5.205,10.24,8.213,16.811,8.213h448
				c11.776,0,21.333-9.536,21.333-21.333v-64H15.34L0.641,445.132z"/>
		</g>
	</g>
</g>
</svg>